# xmcd CD database file
#
# Track frame offsets:
#	150
#	13831
#	25675
#	42129
#	58827
#	68586
#	84868
#	99451
#	117073
#	128682
#	148831
#	163713
#	177963
#	189096
#	203629
#	218480
#
# Disc length: 3166 seconds
#
# Revision: 3
# Processed by: cddbd v1.5.2PL0 Copyright (c) Steve Scherf et al.
# Submitted via: CDex 1.79
#
DISCID=ca0c5c10
DTITLE=Erin Hay - Somebody's Angel
DYEAR=2003
DGENRE=Country
TTITLE0=Big City
TTITLE1=Fool # 1
TTITLE2=Take Me Home, Country Roads
TTITLE3=Somebody's Angel
TTITLE4=Walkin' The Floor Over You
TTITLE5=Faded Love
TTITLE6=Givin' Old Memories Away
TTITLE7=Cry Like Memphis
TTITLE8=Among My Souvenirs
TTITLE9=Ode To Billy Joe
TTITLE10=The Tree
TTITLE11=Poor Folks (featuring Ernie Ashworth)
TTITLE12=Oklahoma Hills
TTITLE13=Seed Catalog
TTITLE14=Don't Worry
TTITLE15=Farther Along
EXTD=YEAR: 2003
EXTT0=
EXTT1=
EXTT2=
EXTT3=
EXTT4=
EXTT5=
EXTT6=
EXTT7=
EXTT8=
EXTT9=
EXTT10=
EXTT11=
EXTT12=
EXTT13=
EXTT14=
EXTT15=
PLAYORDER=
